<svg width="250" height="250" viewBox="0 0 250 250" fill="none" xmlns="http://www.w3.org/2000/svg">
<g opacity="0.96">
<rect width="250" height="250" rx="99" fill="white"/>
<path d="M139.717 25.4907C140.246 25.9703 140.023 27.0694 139.268 27.1902C138.392 27.3312 137.51 27.4258 136.624 27.4735C138.407 30.6787 139.945 34.0142 141.224 37.4514C142.289 40.2197 144.838 47.6182 144.838 47.6182C143.294 47.3992 141.488 46.4852 139.929 45.9489C137.689 45.2045 135.498 44.3216 133.369 43.3053L138.777 76.9441L138.754 77.4464C139.105 77.2651 139.411 77.1102 139.638 77.0158C141.035 76.4153 142.504 89.222 142.504 89.222C142.504 89.222 150.386 92.115 154.178 93.7956C159.658 96.224 164.59 98.2672 169.681 101.428C179.618 107.603 188.901 113.891 196.817 122.706C197.765 123.76 198.743 124.806 199.694 125.875C202.081 121.343 203.339 115.98 204.226 111.259C205.566 104.105 205.836 96.7915 205.027 89.5582C203.445 75.3088 197.893 61.3578 188.923 50.141C180.044 39.0376 168.11 30.5024 154.88 25.3283C148.734 22.9275 142.342 21.2089 135.82 20.2034C136.915 22.2239 138.142 24.0631 139.717 25.4907Z" fill="#F2F8F2"/>
<path d="M51.1081 128.942C62.11 114.727 76.4691 103.465 92.897 96.1685C95.6691 94.9335 101.123 92.7506 102.611 90.4015C102.611 90.3033 104.038 85.5522 104.831 82.9048C105.504 80.6615 106.161 79.9477 107.286 79.8344V79.8117C107.286 79.8117 106.935 66.2459 106.776 62.7827C106.58 58.5188 106.297 54.2436 106.274 49.942H106.248C105.062 49.5946 104.359 47.8724 103.864 46.8754C103.27 45.6924 102.774 44.462 102.384 43.1969C102.222 42.6719 102.082 42.1432 101.953 41.6107H102.138C98.8755 41.437 96.549 41.0631 95.5935 40.5079C94.1993 39.5779 93.2068 38.1565 92.8139 36.5273C92.2663 33.7967 94.2906 31.2853 96.7039 30.681C98.0373 30.3679 99.4062 30.2321 100.775 30.2769C100.745 28.7284 100.745 27.1762 100.775 25.6316C100.775 24.4268 100.828 23.2107 100.934 22.0022C89.9172 25.3521 80.0299 31.4137 72.2952 40.4172C67.3365 46.1918 63.2879 52.7216 59.5716 59.3422C55.6401 66.3479 52.1429 73.6029 49.5974 81.2468C44.7406 95.7908 43.5359 112.178 49.9411 126.48C50.2886 127.315 50.6889 128.134 51.1081 128.942Z" fill="#F2F8F2"/>
<path d="M80.4339 206.485C76.9858 203.358 75.4034 198.554 73.5792 194.184C71.8608 190.087 69.5117 181.589 69.5117 181.589C69.5117 181.589 59.2279 188.297 58.3328 192.088C55.2737 189.849 47.1765 192.492 44.1174 194.505C47.4749 193.712 53.2683 187.862 50.1374 183.957C49.0913 182.654 42.5274 178.481 40.3634 180.011C37.1646 182.277 43.0486 184.165 44.6386 184.12C53.4911 183.908 48.7401 170.795 43.4527 168.382C46.2399 170.18 47.9432 172.367 51.5726 171.97C55.6476 171.524 58.4197 167.816 59.243 164.137" stroke="#333333" stroke-width="2" stroke-linecap="round" stroke-linejoin="round"/>
<path d="M58.329 192.088C58.0987 193.463 58.7294 197.798 59.1486 199.377C59.9344 202.237 61.1126 204.975 62.6496 207.512C63.6099 209.123 64.8901 210.521 66.4113 211.619C67.9326 212.716 69.6625 213.491 71.4945 213.894C71.706 217.524 70.9696 220.141 69.761 223.502" stroke="#333333" stroke-width="2" stroke-linecap="round" stroke-linejoin="round"/>
<path d="M80.4339 206.738C80.1884 208.207 73.1034 212.705 71.2906 213.85" stroke="#333333" stroke-width="2" stroke-linecap="round" stroke-linejoin="round"/>
<path d="M118.718 166.332C116.263 165.984 114.046 164.643 111.293 164.572C109.563 164.526 106.259 167.079 106.584 168.783" stroke="#333333" stroke-width="2" stroke-linecap="round" stroke-linejoin="round"/>
<path d="M69.8592 182.768C69.8592 182.768 73.0165 178.739 74.5914 176.503C77.4088 172.503 80.4188 168.459 83.5912 164.712C88.2176 159.255 93.5163 153.563 100.79 152.427C106.901 151.475 112.449 152.914 117.785 155.75" stroke="#333333" stroke-width="2" stroke-linecap="round" stroke-linejoin="round"/>
<path d="M101.515 166.604C106.115 168.22 109.137 169.927 112.804 173.281C114.522 174.844 115.991 177.609 115.991 180.192C115.991 182.775 114.175 185.37 111.954 186.129" stroke="#333333" stroke-width="2" stroke-linecap="round" stroke-linejoin="round"/>
<path d="M100.243 173.968C108.876 177.046 120.739 194.581 105.809 198.358" stroke="#333333" stroke-width="2" stroke-linecap="round" stroke-linejoin="round"/>
<path d="M80.1772 205.976C87.4171 206.731 104.325 189.445 95.6389 190.008C86.9526 190.571 87.8552 203.226 95.5671 204.835C103.034 206.41 108.487 196.546 106.825 190.106C106.1 187.281 102.418 184.441 99.9896 184.388" stroke="#333333" stroke-width="2" stroke-linecap="round" stroke-linejoin="round"/>
<path d="M122.597 99.303C122.827 102.876 113.68 120.966 117.827 122.873C119.292 123.549 120.24 121.174 121.702 121.363C122.956 121.536 124.111 123.647 124.19 124.735C124.519 129.316 115.561 138.04 119.587 138.376C123.613 138.713 126.744 140.389 124.598 145.956" stroke="#333333" stroke-width="2" stroke-linecap="round" stroke-linejoin="round"/>
<path d="M155.62 177.273C159.812 179.105 160.273 181.428 161.338 184.385C163.052 189.162 163.71 195.658 170.863 195.054" stroke="#333333" stroke-width="2" stroke-linecap="round" stroke-linejoin="round"/>
<path d="M154.812 156.55C154.713 154.314 154.653 152.044 154.396 149.82C154.207 148.177 153.682 146.53 152.187 145.624C150.691 144.718 148.935 144.839 147.315 144.869C144.767 144.912 142.22 145.037 139.675 145.246C135.188 145.624 130.524 146.111 126.162 147.267C122.249 148.302 119.507 150.643 119.364 154.873C119.288 157.912 119.373 160.953 119.617 163.982C119.545 166.57 120.95 182.488 120.723 187.874L123.224 189.196C130.256 193.078 139.818 193.282 145.865 192.156C151.911 191.031 155.401 189.66 155.401 189.66C155.232 188.535 155.188 187.395 155.269 186.261C155.718 181.325 154.865 176.37 154.982 171.411C155.099 166.452 155.027 161.505 154.812 156.55Z" fill="#00AF7E" stroke="#00AF7E" stroke-width="2" stroke-linecap="round" stroke-linejoin="round"/>
<path d="M48.2529 132.829C59.5394 116.791 74.97 104.12 92.8969 96.169C95.6728 94.934 101.134 92.7473 102.614 90.3982C102.516 90.6399 104.012 85.6471 104.831 82.9053C106.025 78.9209 107.173 79.7555 110.983 80.2352C117.551 81.0585 124.938 82.2972 131.502 80.5524C134.316 79.7971 138.417 77.2629 139.811 76.6662C141.204 76.0695 142.677 88.8724 142.677 88.8724C142.677 88.8724 150.559 91.7654 154.351 93.446C159.831 95.8744 164.763 97.9176 169.854 101.079C179.791 107.253 189.074 113.542 196.99 122.356C199.18 124.792 201.522 127.187 203.387 129.868C206.03 133.692 208.434 137.675 210.586 141.795" stroke="#333333" stroke-width="2" stroke-linecap="round" stroke-linejoin="round"/>
<path d="M105.069 91.6667C106.459 93.8459 111.437 99.6582 114.352 98.6649C118.506 97.2524 120.519 89.3252 121.588 85.6467C122.54 89.8615 125.327 96.9767 129.583 98.8651C134.014 100.859 139.78 94.4955 140.913 90.4507C140.87 90.8614 140.779 91.2657 140.642 91.6554" stroke="#333333" stroke-width="2" stroke-linecap="round" stroke-linejoin="round"/>
<path d="M169.979 125.094C167.191 124.871 155.877 126.518 153.422 127.583" stroke="#333333" stroke-width="2" stroke-linecap="round" stroke-linejoin="round"/>
<path d="M165.639 121.374C166.731 123.761 167.584 130.438 167.584 130.438" stroke="#333333" stroke-width="2" stroke-linecap="round" stroke-linejoin="round"/>
<path d="M161.829 119.848C162.656 122.486 163.26 125.188 163.634 127.927C163.853 129.407 164.623 135.514 164.623 135.514" stroke="#333333" stroke-width="2" stroke-linecap="round" stroke-linejoin="round"/>
<path d="M171.452 223.503C172.486 221.395 173.476 218.661 173.502 215.651C173.536 211.444 173.635 208.649 173.268 204.468C173.03 201.753 173.076 196.507 170.904 194.596C170.904 194.596 178.929 190.139 183.322 188.176C187.397 191.242 187.737 197.156 188.715 203.732C189.693 210.307 188.994 216.803 187.729 218.608C186.464 220.413 176.663 223.506 171.452 223.503Z" stroke="#333333" stroke-width="2" stroke-linecap="round" stroke-linejoin="round"/>
<path d="M184.326 188.704C184.662 184.384 189.236 174.568 195.52 182.51C192.363 178.99 191.804 173.76 191.487 168.914C191.215 164.73 195.146 161.875 196.887 166.977C198.398 171.358 195.437 173.269 191.351 171.826C187.264 170.383 185.308 166.539 183.933 162.656C183.027 160.069 181.754 152.614 182.072 150.193" stroke="#333333" stroke-width="2" stroke-linecap="round" stroke-linejoin="round"/>
<path d="M172.007 222.253C164.722 223.503 160.764 223.243 156.066 223.043C149.32 222.759 141.601 222.503 135.641 219.02C131.891 216.83 126.955 215.266 123.869 212.086C122.971 211.165 118.96 206.395 119.972 205.47" stroke="#333333" stroke-width="2" stroke-linecap="round" stroke-linejoin="round"/>
<path d="M133.685 211.904C130.309 210.839 116.645 206.889 118.616 200.895" stroke="#333333" stroke-width="2" stroke-linecap="round" stroke-linejoin="round"/>
<path d="M133.859 205.806C128.949 205.051 121.592 203.223 117.619 199.967C116.169 198.789 112.966 194.563 116.108 193.611" stroke="#333333" stroke-width="2" stroke-linecap="round" stroke-linejoin="round"/>
<path d="M135.384 201.066C133.281 200.023 112.022 195.582 117.256 189.585C119.379 187.152 124.017 190.366 126.419 191.073C132.28 192.806 138.47 193.996 144.569 192.768C148.501 191.979 154.487 190.85 157.41 188.365" stroke="#333333" stroke-width="2" stroke-linecap="round" stroke-linejoin="round"/>
<path d="M107.271 79.8117C107.271 79.8117 106.92 66.2459 106.761 62.7827C106.557 58.3187 106.251 53.8433 106.255 49.3566C106.255 47.1473 106.055 41.7391 106.055 41.7391C100.737 41.7088 96.8813 41.2859 95.5784 40.5267C94.1841 39.5967 93.1916 38.1754 92.7987 36.5461C92.2511 33.8156 94.2792 31.3041 96.6887 30.6999C99.7101 29.9445 102.875 30.4242 105.892 30.6999C105.892 30.6999 105.726 22.7915 107.003 19.0828C108.483 14.7887 113.238 12.0015 117.676 11.5786C123.02 11.0649 128.628 16.4203 131.861 20.1101C136.174 25.0197 139.063 31.0209 141.393 37.1051C142.458 39.8734 145.007 47.2719 145.007 47.2719C143.463 47.0528 141.658 46.1389 140.098 45.6026C137.858 44.8582 135.667 43.9752 133.538 42.9589L138.946 76.5977" stroke="#333333" stroke-width="2" stroke-linecap="round" stroke-linejoin="round"/>
<path d="M116.641 42.7632C117.317 44.5193 119.47 46.7136 121.101 46.4039" stroke="#333333" stroke-width="2" stroke-linecap="round" stroke-linejoin="round"/>
<path d="M119.466 33.8347V35.6135" stroke="#333333" stroke-width="2" stroke-linecap="round" stroke-linejoin="round"/>
<path d="M126.577 34.3408V36.3727" stroke="#333333" stroke-width="2" stroke-linecap="round" stroke-linejoin="round"/>
<path d="M99.8195 35.6138C100.828 35.8706 101.987 36.2482 103.037 36.2898" stroke="#333333" stroke-width="2" stroke-linecap="round" stroke-linejoin="round"/>
<path d="M106.055 41.7394C104.544 41.7394 103.177 41.6903 101.938 41.6223C102.067 42.1548 102.206 42.6836 102.369 43.2085C102.759 44.4737 103.255 45.7041 103.849 46.887C104.359 47.884 105.046 49.6062 106.232 49.9537H106.259C106.259 49.7535 106.259 49.5495 106.259 49.3494C106.259 47.1476 106.055 41.7394 106.055 41.7394Z" fill="#333333"/>
<path d="M139.886 25.1483C133.356 19.219 132.813 5.99685 122.396 4.63347C120.307 4.3931 118.196 4.84555 116.388 5.92131C115.461 6.45967 114.601 7.10624 113.827 7.84742C113.166 8.47057 112.649 9.13904 111.965 9.62245C111.073 9.33687 110.131 9.24407 109.201 9.3502C108.27 9.45632 107.373 9.75896 106.568 10.238C104.302 11.5674 102.901 13.9581 102.036 16.3789C100.99 19.3398 100.775 22.5349 100.741 25.6506C100.722 27.1953 100.722 28.7475 100.741 30.296C102.161 30.3224 103.577 30.4735 104.971 30.6132C105.413 32.1065 105.982 33.5595 106.67 34.9564C107.086 35.7948 108.268 35.4813 108.529 34.7147C110.009 30.3488 111.569 26.0057 112.962 21.6096C113.65 19.4418 114.194 17.1494 114.095 14.9136C116.61 19.2371 120.379 22.6939 124.904 24.8254C129.429 26.9568 134.494 27.6622 139.429 26.8479C140.192 26.727 140.415 25.628 139.886 25.1483Z" fill="#333333"/>
<path d="M130.297 152.898L130.127 153.404" stroke="#333333" stroke-width="2" stroke-linecap="round" stroke-linejoin="round"/>
<path d="M125.293 153.79V153.96" stroke="#333333" stroke-width="2" stroke-linecap="round" stroke-linejoin="round"/>
<path d="M135.415 152.449H136.17" stroke="#333333" stroke-width="2" stroke-linecap="round" stroke-linejoin="round"/>
</g>
</svg>
